# Blender v2.64 (sub 9) OBJ File: 'sword.blend'
# www.blender.org
mtllib sword.mtl
o Plane
v -0.224392 -3.199496 -0.000000
v -1.057592 -1.221404 -0.062929
v -0.975096 -1.414755 -0.116138
v -0.224392 -1.642875 -0.000000
v -0.406965 -1.313583 -0.000000
v -0.975096 -1.414755 0.116138
v -0.417045 5.761811 -0.000000
v -0.731297 -1.270109 0.111805
v -0.224392 -3.474194 -0.000000
v -0.731297 -1.270109 -0.111805
v -0.639000 -1.642875 -0.116138
v -0.639000 -1.642875 0.116138
v -0.404449 -1.313583 0.210633
v -0.404449 -1.313583 -0.210633
v -0.564133 -1.372894 -0.158126
v -0.564133 -1.372894 0.158126
v -0.880806 -1.551627 0.133843
v -0.880806 -1.551627 -0.133843
v -1.057592 -1.221404 0.062929
v -0.817541 -1.237123 0.076243
v -0.817541 -1.237123 -0.076243
v -0.000000 -3.199496 0.116138
v -0.000000 -3.199496 -0.116138
v 0.224392 -3.199496 -0.000000
v 1.057592 -1.221404 -0.062929
v 0.975096 -1.414755 -0.116138
v 0.224392 -1.642875 -0.000000
v -0.000000 -1.642875 -0.116138
v -0.000000 -1.642875 0.116138
v -0.000000 -1.313583 0.210633
v -0.000000 -1.313583 -0.210633
v 0.406965 -1.313583 -0.000000
v 0.975096 -1.414755 0.116138
v -0.000000 5.761811 0.287007
v -0.000000 5.761811 -0.287007
v 0.417045 5.761811 -0.000000
v 0.731297 -1.270109 0.111805
v -0.000000 6.225837 -0.000000
v -0.000000 -3.474194 0.116138
v -0.000000 -3.474194 -0.116138
v 0.224392 -3.474194 -0.000000
v 0.731297 -1.270109 -0.111805
v 0.639000 -1.642875 -0.116138
v 0.639000 -1.642875 0.116138
v 0.404449 -1.313583 0.210633
v 0.404449 -1.313583 -0.210633
v 0.564133 -1.372894 -0.158126
v 0.564133 -1.372894 0.158126
v 0.880806 -1.551627 0.133843
v 0.880806 -1.551627 -0.133843
v 1.057592 -1.221404 0.062929
v 0.817541 -1.237123 0.076243
v 0.817541 -1.237123 -0.076243
vt 0.406301 0.278432
vt 0.406301 0.305910
vt 0.362951 0.303511
vt 0.362951 0.280831
vt 0.458301 0.263677
vt 0.458301 0.320665
vt 0.422940 0.312318
vt 0.422940 0.272024
vt 0.362702 0.049625
vt 0.317172 0.049625
vt 0.317171 0.330127
vt 0.362701 0.330127
vt 0.271642 0.049625
vt 0.271641 0.330127
vt 0.218290 0.899954
vt 0.110438 0.855466
vt 0.106130 0.999875
vt 0.271392 0.010641
vt 0.135951 0.000125
vt 0.000125 0.002549
vt 0.000125 0.893446
vt 0.488997 0.330127
vt 0.488997 0.254215
vt 0.561878 0.330127
vt 0.561878 0.254215
vt 0.299576 0.444588
vt 0.330547 0.485218
vt 0.312731 0.485931
vt 0.271641 0.471911
vt 0.299576 0.347023
vt 0.330547 0.387653
vt 0.312731 0.388366
vt 0.271641 0.374346
vt 0.271641 0.560965
vt 0.271641 0.538285
vt 0.309522 0.528697
vt 0.309522 0.570553
vt 0.324677 0.330376
vt 0.366298 0.381175
vt 0.324677 0.427942
vt 0.366298 0.478740
vt 0.371359 0.427942
vt 0.390026 0.500391
vt 0.271641 0.000125
vt 0.317171 0.000125
vt 0.362701 0.000125
vt 0.371359 0.330376
vt 0.390026 0.402826
vt 0.479596 0.369663
vt 0.458534 0.427692
vt 0.479596 0.467228
vt 0.458534 0.525257
vt 0.339472 0.525506
vt 0.339472 0.573743
vt 0.386045 0.528697
vt 0.386045 0.570553
vt 0.501191 0.528697
vt 0.501191 0.570553
vt 0.507643 0.100260
vt 0.470471 0.126551
vt 0.470471 0.081021
vn -0.065343 -0.997863 0.000000
vn -0.523782 -0.851853 0.000000
vn -0.459653 0.000000 -0.888098
vn 0.459653 0.000000 -0.888098
vn -0.505127 0.453985 -0.733992
vn -0.516957 -0.004988 -0.855997
vn 0.516957 0.004988 -0.855997
vn 0.348186 -0.937425 -0.000000
vn 0.000000 -1.000000 0.000000
vn 0.097445 -0.299588 0.949079
vn -0.097445 0.299588 0.949079
vn 0.919778 0.392438 -0.000001
vn -0.114555 0.137855 0.983805
vn 0.114556 -0.137855 0.983805
vn 0.505127 -0.453985 -0.733992
vn -0.357230 -0.934016 0.000000
vn 0.095683 0.127007 0.987276
vn -0.095683 -0.127007 0.987276
vn 0.000000 -0.275831 0.961206
vn 0.000000 0.275831 0.961206
vn 0.823508 0.567305 -0.000000
vn 0.353057 0.935602 -0.000000
vn 0.000000 1.000000 0.000000
vn 0.065343 -0.997863 0.000000
vn 0.523782 -0.851853 0.000000
vn 0.505127 0.453985 -0.733992
vn 0.516957 -0.004988 -0.855997
vn -0.516957 0.004988 -0.855997
vn -0.348186 -0.937425 -0.000000
vn -0.097445 -0.299588 0.949079
vn 0.097445 0.299588 0.949079
vn -0.919778 0.392438 -0.000001
vn 0.114555 0.137855 0.983805
vn -0.114556 -0.137855 0.983805
vn -0.505127 -0.453985 -0.733992
vn 0.357230 -0.934016 0.000000
vn -0.095683 0.127007 0.987276
vn -0.459653 0.000000 -0.888099
vn 0.095683 -0.127007 0.987276
vn -0.823508 0.567305 -0.000000
vn -0.353057 0.935602 -0.000000
usemtl 
s off
f 21/1/1 20/2/1 19/3/1
f 21/1/1 19/3/1 2/4/1
f 15/5/2 16/6/2 8/7/2
f 15/5/2 8/7/2 10/8/2
f 23/9/3 1/10/3 4/11/3
f 23/9/3 4/11/3 28/12/3
f 22/13/4 1/10/4 4/11/4
f 22/13/4 4/11/4 29/14/4
f 35/15/5 7/16/5 38/17/5
f 31/18/6 5/19/6 7/16/6
f 31/18/6 7/16/6 35/15/6
f 30/20/7 5/19/7 7/16/7
f 30/20/7 7/16/7 34/21/7
f 13/22/8 16/6/8 15/5/8
f 13/22/8 15/5/8 14/23/8
f 30/24/9 13/22/9 14/23/9
f 30/24/9 14/23/9 31/25/9
f 3/26/10 10/27/10 21/28/10
f 3/26/10 21/28/10 2/29/10
f 6/30/11 8/31/11 20/32/11
f 6/30/11 20/32/11 19/33/11
f 2/34/12 19/35/12 6/36/12
f 2/34/12 6/36/12 3/37/12
f 17/38/13 16/39/13 8/31/13
f 17/38/13 8/31/13 6/30/13
f 18/40/14 15/41/14 10/27/14
f 18/40/14 10/27/14 3/26/14
f 34/21/15 7/16/15 38/17/15
f 10/8/16 8/7/16 20/2/16
f 10/8/16 20/2/16 21/1/16
f 11/42/17 14/43/17 15/41/17
f 11/42/17 15/41/17 18/40/17
f 1/10/4 22/13/4 39/44/4
f 1/10/4 39/44/4 9/45/4
f 1/10/3 23/9/3 40/46/3
f 1/10/3 40/46/3 9/45/3
f 12/47/18 13/48/18 16/39/18
f 12/47/18 16/39/18 17/38/18
f 29/49/19 30/50/19 13/48/19
f 29/49/19 13/48/19 12/47/19
f 28/51/20 31/52/20 14/43/20
f 28/51/20 14/43/20 11/42/20
f 3/37/21 6/36/21 17/53/21
f 3/37/21 17/53/21 18/54/21
f 18/54/22 17/53/22 12/55/22
f 18/54/22 12/55/22 11/56/22
f 11/56/23 12/55/23 29/57/23
f 11/56/23 29/57/23 28/58/23
f 40/59/23 9/60/23 39/61/23
f 53/1/24 25/4/24 51/3/24
f 53/1/24 51/3/24 52/2/24
f 47/5/25 42/8/25 37/7/25
f 47/5/25 37/7/25 48/6/25
f 27/11/4 24/10/4 23/9/4
f 27/11/4 23/9/4 28/12/4
f 27/11/3 24/10/3 22/13/3
f 27/11/3 22/13/3 29/14/3
f 35/15/26 38/17/26 36/16/26
f 31/18/27 35/15/27 36/16/27
f 31/18/27 36/16/27 32/19/27
f 30/20/28 34/21/28 36/16/28
f 30/20/28 36/16/28 32/19/28
f 45/22/29 46/23/29 47/5/29
f 45/22/29 47/5/29 48/6/29
f 30/24/9 31/25/9 46/23/9
f 30/24/9 46/23/9 45/22/9
f 26/26/30 25/29/30 53/28/30
f 26/26/30 53/28/30 42/27/30
f 33/30/31 51/33/31 52/32/31
f 33/30/31 52/32/31 37/31/31
f 25/34/32 26/37/32 33/36/32
f 25/34/32 33/36/32 51/35/32
f 49/38/33 33/30/33 37/31/33
f 49/38/33 37/31/33 48/39/33
f 50/40/34 26/26/34 42/27/34
f 50/40/34 42/27/34 47/41/34
f 34/21/35 38/17/35 36/16/35
f 42/8/36 53/1/36 52/2/36
f 42/8/36 52/2/36 37/7/36
f 43/42/37 50/40/37 47/41/37
f 43/42/37 47/41/37 46/43/37
f 24/10/38 41/45/38 39/44/38
f 24/10/38 39/44/38 22/13/38
f 24/10/4 41/45/4 40/46/4
f 24/10/4 40/46/4 23/9/4
f 44/47/39 49/38/39 48/39/39
f 44/47/39 48/39/39 45/48/39
f 29/49/19 44/47/19 45/48/19
f 29/49/19 45/48/19 30/50/19
f 28/51/20 43/42/20 46/43/20
f 28/51/20 46/43/20 31/52/20
f 26/37/40 50/54/40 49/53/40
f 26/37/40 49/53/40 33/36/40
f 50/54/41 43/56/41 44/55/41
f 50/54/41 44/55/41 49/53/41
f 43/56/23 28/58/23 29/57/23
f 43/56/23 29/57/23 44/55/23
f 40/59/23 39/61/23 41/60/23
