# Blender v2.64 (sub 9) OBJ File: 'enemy.blend'
# www.blender.org
mtllib enemy.mtl
o Cube
v -1.000000 0.000000 1.000000
v -1.000000 0.000000 -1.000000
v 1.000000 0.000000 -1.000000
v 1.000000 0.000000 1.000000
v -1.000000 4.000000 1.000000
v -1.000000 4.000000 -1.000000
v 1.000000 4.000000 -1.000000
v 1.000000 4.000000 1.000000
vt 0.500000 0.000121
vt 0.749939 0.000121
vt 0.749940 0.500000
vt 0.500000 0.500000
vt 0.250060 0.500000
vt 0.250060 0.000121
vt 0.000121 0.499999
vt 0.000121 0.000121
vt 0.999879 0.000121
vt 0.999879 0.500000
vt 0.250302 0.750181
vt 0.250302 0.500242
vt 0.500241 0.500242
vt 0.500241 0.750181
vt 0.250060 0.500242
vt 0.250060 0.750181
vt 0.000121 0.750181
vt 0.000121 0.500242
vn -1.000000 -0.000000 0.000000
vn 0.000000 0.000000 -1.000000
vn 1.000000 -0.000000 0.000000
vn 0.000000 0.000000 1.000000
vn -0.000000 -1.000000 0.000000
vn -0.000000 1.000000 0.000000
usemtl 
s off
f 2/1/1 1/2/1 5/3/1
f 2/1/1 5/3/1 6/4/1
f 6/4/2 7/5/2 3/6/2
f 6/4/2 3/6/2 2/1/2
f 7/5/3 8/7/3 4/8/3
f 7/5/3 4/8/3 3/6/3
f 1/2/4 4/9/4 8/10/4
f 1/2/4 8/10/4 5/3/4
f 1/11/5 2/12/5 3/13/5
f 1/11/5 3/13/5 4/14/5
f 8/15/6 7/16/6 6/17/6
f 8/15/6 6/17/6 5/18/6
